<svg width="339" height="240" viewBox="0 0 339 240" fill="none" xmlns="http://www.w3.org/2000/svg">
<path d="M119.61 227.135H110.324C110.098 227.135 109.905 227.328 109.905 227.57C109.905 227.812 110.098 227.989 110.324 227.989H114.548V239.355C114.548 239.597 114.741 239.79 114.967 239.79C115.209 239.79 115.402 239.597 115.402 239.355V227.989H119.61C119.836 227.989 120.029 227.812 120.029 227.57C120.029 227.328 119.836 227.135 119.61 227.135Z" fill="url(#paint0_linear_4_4)"/>
<path d="M140.59 240C139.687 240 138.817 239.823 137.995 239.468C137.205 239.146 136.495 238.662 135.883 238.049C135.27 237.437 134.803 236.743 134.464 235.953C134.109 235.147 133.932 234.293 133.932 233.406C133.932 232.536 134.109 231.665 134.464 230.859C134.803 230.085 135.286 229.376 135.899 228.779C136.528 228.167 137.237 227.699 138.027 227.361C138.865 227.006 139.736 226.845 140.623 226.845C142.396 226.845 144.04 227.522 145.266 228.779C145.862 229.392 146.33 230.101 146.652 230.875C146.975 231.681 147.152 232.536 147.152 233.422C147.152 234.293 146.975 235.147 146.636 235.953C146.314 236.743 145.846 237.453 145.249 238.049C144.008 239.307 142.364 240 140.59 240ZM140.623 227.699C139.849 227.699 139.091 227.844 138.365 228.15C137.672 228.441 137.043 228.86 136.511 229.392C135.979 229.908 135.56 230.52 135.254 231.197C134.948 231.907 134.803 232.648 134.803 233.406C134.803 234.164 134.948 234.906 135.254 235.615C135.544 236.292 135.963 236.905 136.495 237.437C137.592 238.533 139.043 239.146 140.59 239.146C142.122 239.146 143.557 238.533 144.637 237.453C145.153 236.921 145.556 236.308 145.846 235.631C146.136 234.922 146.281 234.18 146.281 233.422C146.281 232.648 146.136 231.907 145.846 231.214C145.572 230.52 145.169 229.908 144.653 229.392C143.589 228.296 142.17 227.699 140.623 227.699Z" fill="url(#paint1_linear_4_4)"/>
<path d="M188.576 238.936H180.789V233.89H187.577C187.819 233.89 188.012 233.696 188.012 233.455C188.012 233.229 187.819 233.035 187.577 233.035H180.789V228.021H188.415C188.641 228.021 188.834 227.828 188.834 227.586C188.834 227.36 188.641 227.167 188.415 227.167H180.37C180.128 227.167 179.935 227.36 179.935 227.586V239.355C179.935 239.597 180.128 239.79 180.37 239.79H188.576C188.818 239.79 189.012 239.597 189.012 239.355C189.012 239.129 188.818 238.936 188.576 238.936Z" fill="url(#paint2_linear_4_4)"/>
<path d="M214.61 239.79C214.481 239.79 214.352 239.742 214.271 239.629L205.162 228.699V239.355C205.162 239.581 204.969 239.774 204.743 239.774C204.501 239.774 204.308 239.581 204.308 239.355V227.506C204.308 227.312 204.421 227.151 204.582 227.103C204.759 227.038 204.953 227.086 205.066 227.232L214.174 238.162V227.506C214.174 227.264 214.368 227.07 214.61 227.07C214.851 227.07 215.045 227.264 215.045 227.506V239.355C215.045 239.532 214.932 239.71 214.755 239.758C214.706 239.774 214.658 239.79 214.61 239.79Z" fill="url(#paint3_linear_4_4)"/>
<path d="M228.353 239.79C228.111 239.79 227.918 239.597 227.918 239.355V227.554C227.918 227.328 228.111 227.135 228.353 227.135C228.595 227.135 228.789 227.328 228.789 227.554V239.355C228.789 239.597 228.595 239.79 228.353 239.79Z" fill="url(#paint4_linear_4_4)"/>
<path d="M45.4391 216.822C44.2585 216.822 43.1904 216.092 42.7968 214.967L31.2156 183.316L19.6905 214.967C19.2408 216.092 18.2288 216.822 17.0482 216.822C15.8676 216.822 14.7994 216.092 14.4059 214.967L0.182321 176.063C-0.379879 174.601 0.407203 173.027 1.86891 172.465C3.33062 171.959 4.90477 172.69 5.46697 174.152L17.0482 205.803L28.5733 174.152C28.9668 173.027 30.035 172.296 31.2156 172.296C32.3962 172.296 33.4644 173.027 33.8579 174.152L45.4391 205.803L56.9642 174.152C57.5264 172.69 59.1005 171.959 60.5622 172.465C62.0239 173.027 62.811 174.601 62.2488 176.063L48.0815 214.967C47.6879 216.092 46.6198 216.822 45.4391 216.822Z" fill="url(#paint5_linear_4_4)"/>
<path d="M101.097 210.976H77.0346V197.258H97.8359C99.41 197.258 100.647 196.021 100.647 194.447C100.647 192.929 99.41 191.636 97.8359 191.636H77.0346V178.087H100.534C102.109 178.087 103.345 176.85 103.345 175.276C103.345 173.702 102.109 172.465 100.534 172.465H74.2236C72.7057 172.465 71.4126 173.702 71.4126 175.276V213.787C71.4126 215.361 72.7057 216.598 74.2236 216.598H101.097C102.671 216.598 103.908 215.361 103.908 213.787C103.908 212.212 102.671 210.976 101.097 210.976Z" fill="url(#paint6_linear_4_4)"/>
<path d="M140.226 216.654H115.714C114.196 216.654 112.903 215.417 112.903 213.843V175.276C112.903 173.702 114.196 172.465 115.714 172.465C117.288 172.465 118.525 173.702 118.525 175.276V211.032H140.226C141.8 211.032 143.037 212.269 143.037 213.843C143.037 215.417 141.8 216.654 140.226 216.654Z" fill="url(#paint7_linear_4_4)"/>
<path d="M175.138 217.385C171.99 217.385 168.954 216.766 166.087 215.529C163.388 214.349 160.914 212.718 158.778 210.582C156.642 208.502 155.011 206.028 153.831 203.274C152.594 200.463 152.032 197.483 152.032 194.447C152.032 191.355 152.65 188.375 153.831 185.564C155.011 182.866 156.698 180.392 158.834 178.312C160.971 176.176 163.5 174.545 166.255 173.365C169.122 172.184 172.158 171.566 175.25 171.566C180.31 171.566 185.033 173.14 188.968 176.176C190.205 177.131 190.43 178.874 189.53 180.111C188.574 181.348 186.775 181.573 185.595 180.673C182.615 178.368 179.073 177.188 175.25 177.188C172.889 177.188 170.584 177.637 168.392 178.537C166.311 179.436 164.4 180.673 162.77 182.304C161.195 183.878 159.902 185.733 159.003 187.813C158.103 189.893 157.654 192.142 157.654 194.447C157.654 196.752 158.103 198.945 159.003 201.081C159.902 203.161 161.139 205.016 162.77 206.59C166.087 209.907 170.472 211.763 175.138 211.763C177.218 211.763 179.186 211.369 181.097 210.695C182.952 210.02 184.639 209.008 186.157 207.771C187.338 206.759 189.08 206.928 190.092 208.108C191.104 209.289 190.936 211.088 189.755 212.044C187.731 213.73 185.482 215.023 183.065 215.923C180.535 216.879 177.836 217.385 175.138 217.385Z" fill="url(#paint8_linear_4_4)"/>
<path d="M222.615 217.61C219.471 217.61 216.439 216.992 213.575 215.757C210.824 214.634 208.353 212.949 206.219 210.815C204.086 208.682 202.457 206.267 201.278 203.516C200.043 200.708 199.425 197.732 199.425 194.644C199.425 191.612 200.043 188.58 201.278 185.772C202.457 183.077 204.142 180.606 206.275 178.529C208.465 176.395 210.936 174.767 213.687 173.587C216.607 172.352 219.639 171.79 222.728 171.79C228.904 171.79 234.632 174.149 238.899 178.529C240.977 180.662 242.605 183.133 243.728 185.828C244.851 188.636 245.469 191.612 245.469 194.7C245.469 197.732 244.851 200.708 243.672 203.516C242.549 206.267 240.92 208.738 238.843 210.815C234.519 215.195 228.792 217.61 222.615 217.61ZM222.728 174.767C220.032 174.767 217.393 175.272 214.866 176.339C212.452 177.349 210.262 178.809 208.409 180.662C206.556 182.459 205.096 184.593 204.029 186.951C202.962 189.422 202.457 192.005 202.457 194.644C202.457 197.283 202.962 199.866 204.029 202.337C205.04 204.695 206.5 206.829 208.353 208.682C212.171 212.5 217.225 214.634 222.615 214.634C227.95 214.634 232.947 212.5 236.709 208.738C238.506 206.885 239.91 204.751 240.92 202.393C241.931 199.922 242.436 197.339 242.436 194.7C242.436 192.005 241.931 189.422 240.92 187.007C239.966 184.593 238.562 182.459 236.765 180.662C233.059 176.844 228.118 174.767 222.728 174.767Z" fill="url(#paint9_linear_4_4)"/>
<path d="M296.059 216.429C295.269 216.429 294.591 215.752 294.591 214.905V178.336L277.097 202.264C276.815 202.659 276.363 202.885 275.855 202.885C275.404 202.885 274.953 202.659 274.67 202.264L257.176 178.336V214.905C257.176 215.752 256.499 216.429 255.652 216.429C254.806 216.429 254.129 215.752 254.129 214.905V173.709C254.129 173.088 254.58 172.467 255.201 172.298C255.822 172.072 256.499 172.298 256.837 172.806L275.855 198.822L294.874 172.806C295.269 172.298 295.946 172.072 296.567 172.298C297.187 172.467 297.582 173.088 297.582 173.709V214.905C297.582 215.752 296.905 216.429 296.059 216.429Z" fill="url(#paint10_linear_4_4)"/>
<path d="M337.172 213.61H309.948V195.969H333.677C334.522 195.969 335.199 195.292 335.199 194.447C335.199 193.658 334.522 192.981 333.677 192.981H309.948V175.452H336.608C337.397 175.452 338.073 174.776 338.073 173.931C338.073 173.141 337.397 172.465 336.608 172.465H308.483C307.637 172.465 306.961 173.141 306.961 173.931V215.076C306.961 215.921 307.637 216.598 308.483 216.598H337.172C338.017 216.598 338.693 215.921 338.693 215.076C338.693 214.287 338.017 213.61 337.172 213.61Z" fill="url(#paint11_linear_4_4)"/>
<path fill-rule="evenodd" clip-rule="evenodd" d="M106.987 99.7615C97.1138 79.7205 97.0888 55.2605 109.096 34.4635C121.227 13.4526 142.748 1.04459 165.301 0.00859661C170.148 -0.214403 174.059 3.93259 174.059 8.78459C174.059 13.6366 170.096 17.9596 165.259 17.5846C153.459 16.6696 141.25 18.6316 130.216 25.0026C120.735 30.4766 113.345 38.1875 108.444 47.1345C99.7598 62.9835 98.7418 82.5605 106.987 99.7615Z" fill="url(#paint12_linear_4_4)"/>
<path fill-rule="evenodd" clip-rule="evenodd" d="M219.311 112.359C208.537 128.099 191.073 137.006 173.006 137.411C162.807 137.639 152.434 135.095 142.954 129.621C131.919 123.25 124.115 113.658 119.008 102.982C116.914 98.6065 111.188 97.3355 106.987 99.7615C102.785 102.187 101.149 107.648 103.765 111.734C115.939 130.748 137.445 143.181 161.706 143.181C185.721 143.181 206.891 130.929 219.311 112.359Z" fill="url(#paint13_linear_4_4)"/>
<path fill-rule="evenodd" clip-rule="evenodd" d="M219.311 112.359C223.513 114.785 229.06 113.471 231.291 109.162C241.67 89.1125 241.685 64.2725 229.554 43.2605C217.547 22.4636 196.351 10.2556 174.059 8.78459C193.077 10.2446 209.523 20.9156 218.907 36.3595C224.205 45.0785 227.187 55.3335 227.187 66.2815C227.187 79.0225 222.782 90.5775 216.09 100.338C213.347 104.339 215.109 109.933 219.311 112.359Z" fill="url(#paint14_linear_4_4)"/>
<defs>
<linearGradient id="paint0_linear_4_4" x1="-3.51074e-05" y1="120" x2="338.693" y2="120" gradientUnits="userSpaceOnUse">
<stop stop-color="#BDC3C7"/>
<stop offset="1" stop-color="#767A7C"/>
</linearGradient>
<linearGradient id="paint1_linear_4_4" x1="-7.45398e-05" y1="120" x2="338.693" y2="120" gradientUnits="userSpaceOnUse">
<stop stop-color="#BDC3C7"/>
<stop offset="1" stop-color="#767A7C"/>
</linearGradient>
<linearGradient id="paint2_linear_4_4" x1="0.00042265" y1="120" x2="338.693" y2="120" gradientUnits="userSpaceOnUse">
<stop stop-color="#BDC3C7"/>
<stop offset="1" stop-color="#767A7C"/>
</linearGradient>
<linearGradient id="paint3_linear_4_4" x1="0.00014584" y1="120" x2="338.693" y2="120" gradientUnits="userSpaceOnUse">
<stop stop-color="#BDC3C7"/>
<stop offset="1" stop-color="#767A7C"/>
</linearGradient>
<linearGradient id="paint4_linear_4_4" x1="0.00128524" y1="120" x2="338.693" y2="120" gradientUnits="userSpaceOnUse">
<stop stop-color="#BDC3C7"/>
<stop offset="1" stop-color="#767A7C"/>
</linearGradient>
<linearGradient id="paint5_linear_4_4" x1="-1.8928e-05" y1="120" x2="338.693" y2="120" gradientUnits="userSpaceOnUse">
<stop stop-color="#BDC3C7"/>
<stop offset="1" stop-color="#767A7C"/>
</linearGradient>
<linearGradient id="paint6_linear_4_4" x1="-5.3836e-05" y1="120" x2="338.693" y2="120" gradientUnits="userSpaceOnUse">
<stop stop-color="#BDC3C7"/>
<stop offset="1" stop-color="#767A7C"/>
</linearGradient>
<linearGradient id="paint7_linear_4_4" x1="-2.89924e-05" y1="120" x2="338.693" y2="120" gradientUnits="userSpaceOnUse">
<stop stop-color="#BDC3C7"/>
<stop offset="1" stop-color="#767A7C"/>
</linearGradient>
<linearGradient id="paint8_linear_4_4" x1="-4.00496e-05" y1="120" x2="338.693" y2="120" gradientUnits="userSpaceOnUse">
<stop stop-color="#BDC3C7"/>
<stop offset="1" stop-color="#767A7C"/>
</linearGradient>
<linearGradient id="paint9_linear_4_4" x1="4.02867e-05" y1="120" x2="338.693" y2="120" gradientUnits="userSpaceOnUse">
<stop stop-color="#BDC3C7"/>
<stop offset="1" stop-color="#767A7C"/>
</linearGradient>
<linearGradient id="paint10_linear_4_4" x1="0.00013658" y1="120" x2="338.693" y2="120" gradientUnits="userSpaceOnUse">
<stop stop-color="#BDC3C7"/>
<stop offset="1" stop-color="#767A7C"/>
</linearGradient>
<linearGradient id="paint11_linear_4_4" x1="0.000164108" y1="120" x2="338.693" y2="120" gradientUnits="userSpaceOnUse">
<stop stop-color="#BDC3C7"/>
<stop offset="1" stop-color="#767A7C"/>
</linearGradient>
<linearGradient id="paint12_linear_4_4" x1="1.01441e-05" y1="120" x2="338.693" y2="120" gradientUnits="userSpaceOnUse">
<stop stop-color="#BDC3C7"/>
<stop offset="1" stop-color="#767A7C"/>
</linearGradient>
<linearGradient id="paint13_linear_4_4" x1="-1.16988e-05" y1="120" x2="338.693" y2="120" gradientUnits="userSpaceOnUse">
<stop stop-color="#BDC3C7"/>
<stop offset="1" stop-color="#767A7C"/>
</linearGradient>
<linearGradient id="paint14_linear_4_4" x1="-2.40119e-05" y1="120" x2="338.693" y2="120" gradientUnits="userSpaceOnUse">
<stop stop-color="#BDC3C7"/>
<stop offset="1" stop-color="#767A7C"/>
</linearGradient>
</defs>
</svg>
